<svg class="svg-icon" style="width: 1em; height: 1em;vertical-align: middle;fill: currentColor;overflow: hidden;" viewBox="0 0 1024 1024" version="1.1" xmlns="http://www.w3.org/2000/svg"><path d="M857.9 443.8c5.52 0 10-4.48 10-10s-4.48-10-10-10h-65.12v-58.22h65.12c5.52 0 10-4.48 10-10s-4.48-10-10-10h-65.12v-40.28c0-5.52-4.48-10-10-10h-88.12v-38.72l79.64-79.64c0.32-0.3 0.56-0.66 0.84-1 0.12-0.16 0.28-0.32 0.4-0.5 0.26-0.38 0.46-0.8 0.66-1.2 0.08-0.18 0.18-0.34 0.26-0.52 0.2-0.46 0.32-0.94 0.44-1.44 0.04-0.14 0.1-0.28 0.14-0.42 0.12-0.66 0.2-1.34 0.2-2.02V98.12c15.6-4.38 27.08-18.7 27.08-35.68 0-20.46-16.64-37.08-37.08-37.08-20.44 0-37.08 16.62-37.08 37.08 0 16.98 11.48 31.28 27.08 35.68v67.62l-79.66 79.64c-1.98 2-2.96 4.62-2.92 7.22v42.7h-60.08v-84.76l35.56-35.56c0.48-0.48 0.92-1 1.3-1.58 0.06-0.1 0.1-0.2 0.16-0.3 0.28-0.46 0.54-0.92 0.76-1.42 0.06-0.16 0.08-0.32 0.14-0.46 0.16-0.46 0.32-0.92 0.42-1.42 0.02-0.14 0.02-0.28 0.04-0.4 0.08-0.5 0.14-1 0.14-1.52v-19.58c15.6-4.38 27.08-18.7 27.08-35.68 0-20.44-16.64-37.08-37.08-37.08-20.44 0-37.08 16.64-37.08 37.08 0 16.98 11.48 31.3 27.08 35.68v15.44l-35.6 35.6c-0.1 0.1-0.16 0.22-0.26 0.32-0.34 0.38-0.68 0.76-0.96 1.18-0.22 0.32-0.36 0.66-0.54 0.98-0.12 0.26-0.28 0.48-0.38 0.74-0.18 0.42-0.28 0.86-0.4 1.3-0.06 0.18-0.14 0.36-0.18 0.56-0.12 0.68-0.2 1.36-0.2 2.02v88.86h-70.04v-63.98c15.6-4.36 27.1-18.68 27.1-35.68 0-20.44-16.64-37.08-37.1-37.08-20.44 0-37.08 16.64-37.08 37.08 0 16.98 11.48 31.3 27.08 35.68v63.98h-70.04v-88.76c0.02-1.38-0.24-2.74-0.78-4.02-0.04-0.06-0.08-0.12-0.1-0.2-0.24-0.52-0.5-1.02-0.82-1.5-0.04-0.06-0.1-0.12-0.14-0.16-0.32-0.46-0.66-0.92-1.08-1.32l-35.6-35.6v-15.44c15.6-4.38 27.1-18.7 27.1-35.68 0-20.44-16.64-37.08-37.08-37.08-20.46 0-37.1 16.64-37.1 37.08 0 16.98 11.48 31.3 27.08 35.68v19.58c0 0.48 0.08 0.96 0.14 1.42 0.04 0.16 0.02 0.34 0.06 0.5 0.1 0.48 0.24 0.94 0.4 1.38 0.06 0.16 0.1 0.34 0.16 0.5 0.2 0.48 0.46 0.94 0.74 1.38 0.06 0.12 0.1 0.24 0.18 0.34 0.38 0.58 0.8 1.1 1.3 1.58l35.54 35.56v84.76h-60.08v-42.64a9.92 9.92 0 0 0-2.92-7.28l-79.64-79.64V98.12c15.6-4.4 27.08-18.7 27.08-35.68 0-20.46-16.64-37.08-37.08-37.08-20.46 0-37.08 16.62-37.08 37.08 0 16.98 11.48 31.3 27.08 35.68v71.72c0 0.68 0.06 1.36 0.2 2.02 0.02 0.14 0.08 0.26 0.12 0.4 0.12 0.5 0.26 1 0.46 1.48 0.06 0.16 0.16 0.3 0.24 0.46 0.2 0.42 0.42 0.84 0.68 1.26l0.3 0.36c0.28 0.38 0.58 0.78 0.92 1.12l79.64 79.64v38.72h-93.2c-5.52 0-10 4.48-10 10v40.28H166.1c-5.52 0-10 4.48-10 10s4.48 10 10 10h65.12v58.22H166.1c-5.52 0-10 4.48-10 10s4.48 10 10 10h65.12V502H166.1c-5.52 0-10 4.48-10 10s4.48 10 10 10h65.12v58.22H166.1c-5.52 0-10 4.46-10 10 0 5.52 4.48 10 10 10h65.12v58.2H166.1c-5.52 0-10 4.48-10 10s4.48 10 10 10h65.12v40.28c0 5.52 4.48 10 10 10h93.22v38.7l-79.66 79.66c-0.44 0.44-0.84 0.94-1.18 1.44 0 0.02-0.02 0.02-0.04 0.04-0.3 0.46-0.54 0.94-0.76 1.42-0.04 0.1-0.12 0.2-0.16 0.3-0.22 0.54-0.38 1.08-0.52 1.64 0 0.08-0.04 0.16-0.06 0.22-0.14 0.68-0.2 1.38-0.2 2.06v71.7c-15.6 4.38-27.08 18.7-27.08 35.68 0 20.46 16.62 37.08 37.08 37.08 20.44 0 37.08-16.62 37.08-37.08 0-16.98-11.48-31.28-27.08-35.66v-67.64l79.64-79.64c0.48-0.48 0.9-0.98 1.26-1.54 0.16-0.22 0.26-0.48 0.38-0.72 0.2-0.32 0.4-0.64 0.54-1 0.12-0.3 0.2-0.62 0.28-0.92 0.1-0.32 0.22-0.62 0.28-0.96 0.12-0.54 0.16-1.08 0.18-1.64 0-0.1 0.02-0.2 0.02-0.3v-42.84h60.08v84.74l-35.56 35.58c-0.48 0.48-0.92 1-1.3 1.58-0.08 0.1-0.12 0.22-0.18 0.32-0.28 0.46-0.54 0.92-0.74 1.4-0.06 0.16-0.1 0.34-0.16 0.5-0.16 0.46-0.3 0.9-0.4 1.38-0.04 0.18-0.04 0.38-0.06 0.56-0.06 0.46-0.14 0.9-0.14 1.36v19.58c-15.6 4.38-27.08 18.7-27.08 35.68 0 20.44 16.64 37.08 37.1 37.08 20.44 0 37.08-16.64 37.08-37.08 0-17-11.5-31.3-27.1-35.68v-15.44l35.54-35.54c0.5-0.48 0.96-1.02 1.34-1.62 0.02-0.04 0.04-0.08 0.08-0.14 0.32-0.5 0.6-1.02 0.82-1.58 0.06-0.1 0.06-0.2 0.1-0.32 0.2-0.5 0.36-1.02 0.46-1.56 0.02-0.04 0.02-0.08 0.02-0.12 0.1-0.58 0.18-1.18 0.18-1.78v-88.9h70.04v63.98c-15.6 4.38-27.1 18.7-27.1 35.68 0 20.44 16.64 37.08 37.08 37.08 20.46 0 37.1-16.64 37.1-37.08 0-16.98-11.5-31.3-27.08-35.68v-63.98h70.02v88.9c0 0.66 0.08 1.32 0.2 1.96 0.06 0.3 0.18 0.58 0.26 0.88 0.1 0.32 0.18 0.66 0.3 0.98 0.16 0.36 0.36 0.68 0.54 1 0.14 0.24 0.24 0.5 0.38 0.72 0.38 0.56 0.8 1.06 1.26 1.54l35.58 35.58v15.44c-15.6 4.38-27.08 18.7-27.08 35.68 0 20.44 16.64 37.08 37.08 37.08 20.44 0 37.08-16.64 37.08-37.08 0-16.98-11.48-31.3-27.08-35.68v-19.58c0-0.26-0.06-0.5-0.06-0.74-0.04-0.4-0.06-0.8-0.12-1.2-0.08-0.4-0.22-0.76-0.34-1.14-0.08-0.24-0.14-0.48-0.24-0.72-0.16-0.42-0.4-0.82-0.62-1.2-0.1-0.18-0.18-0.36-0.28-0.54-0.38-0.56-0.8-1.08-1.28-1.56l-35.58-35.56v-84.76h60.08v42.74c0 0.7 0.06 1.42 0.2 2.1 0.02 0.04 0.02 0.06 0.04 0.08 0.12 0.62 0.3 1.2 0.54 1.78 0.04 0.1 0.12 0.2 0.16 0.3 0.22 0.48 0.46 0.96 0.76 1.42 0.08 0.1 0.16 0.18 0.24 0.28 0.3 0.42 0.6 0.84 0.98 1.2l79.66 79.66v67.62c-15.6 4.4-27.08 18.7-27.08 35.68 0 20.46 16.64 37.08 37.08 37.08 20.44 0 37.08-16.62 37.08-37.08 0-16.98-11.48-31.3-27.08-35.68v-71.72c0-0.68-0.08-1.36-0.2-2.02l-0.12-0.4c-0.12-0.5-0.26-1-0.46-1.48-0.06-0.16-0.16-0.3-0.24-0.46-0.22-0.42-0.42-0.84-0.68-1.26-0.1-0.14-0.24-0.26-0.34-0.4-0.28-0.38-0.56-0.76-0.9-1.08l-79.64-79.66v-38.7h88.12c5.52 0 10-4.48 10-10v-40.28h65.12c5.52 0 10-4.48 10-10s-4.48-10-10-10h-65.12v-58.2h65.12c5.52 0 10-4.48 10-10 0-5.54-4.48-10-10-10h-65.12V522h65.12c5.52 0 10-4.48 10-10s-4.48-10-10-10h-65.12v-58.2h65.12zM750.16 62.44c0-9.42 7.66-17.08 17.08-17.08s17.08 7.66 17.08 17.08-7.66 17.08-17.08 17.08-17.08-7.66-17.08-17.08z m-124.14 50.18c0-9.42 7.66-17.08 17.08-17.08s17.08 7.66 17.08 17.08-7.66 17.1-17.08 17.1-17.08-7.68-17.08-17.1z m-257.12 0c0-9.42 7.68-17.08 17.1-17.08s17.08 7.66 17.08 17.08-7.66 17.1-17.08 17.1-17.1-7.68-17.1-17.1z m-124.12-50.18c0-9.42 7.66-17.08 17.08-17.08s17.08 7.66 17.08 17.08-7.66 17.08-17.08 17.08-17.08-7.66-17.08-17.08z m34.16 899.12c0 9.42-7.66 17.08-17.08 17.08s-17.08-7.66-17.08-17.08c0-9.42 7.66-17.08 17.08-17.08 9.42 0 17.08 7.66 17.08 17.08z m124.14-50.18c0 9.42-7.66 17.08-17.08 17.08s-17.1-7.66-17.1-17.08 7.68-17.1 17.1-17.1 17.08 7.68 17.08 17.1z m257.1 0c0 9.42-7.66 17.08-17.08 17.08s-17.08-7.66-17.08-17.08 7.66-17.1 17.08-17.1 17.08 7.68 17.08 17.1z m124.14 50.18c0 9.42-7.66 17.08-17.08 17.08s-17.08-7.66-17.08-17.08c0-9.42 7.66-17.08 17.08-17.08s17.08 7.66 17.08 17.08zM497.46 195.64c0-9.42 7.66-17.08 17.08-17.08 9.42 0 17.1 7.66 17.1 17.08s-7.68 17.1-17.1 17.1c-9.42 0-17.08-7.68-17.08-17.1z m34.18 632.72c0 9.42-7.68 17.08-17.1 17.08-9.42 0-17.08-7.66-17.08-17.08s7.66-17.1 17.08-17.1c9.42 0 17.1 7.68 17.1 17.1z m241.14-119.66h-88c-0.04 0-0.08-0.02-0.12-0.02-0.04 0-0.08 0.02-0.12 0.02h-79.84c-0.04 0-0.08-0.02-0.12-0.02-0.04 0-0.08 0.02-0.12 0.02h-89.8c-0.04 0-0.06-0.02-0.1-0.02-0.04 0-0.08 0.02-0.12 0.02h-89.8c-0.04 0-0.08-0.02-0.12-0.02s-0.08 0.02-0.12 0.02h-79.84c-0.04 0-0.08-0.02-0.12-0.02s-0.08 0.02-0.12 0.02h-93.1v-393.4h93.12c0.02 0 0.04 0.02 0.08 0.02 0.02 0 0.06-0.02 0.08-0.02h79.9c0.04 0 0.06 0.02 0.1 0.02 0.02 0 0.06-0.02 0.08-0.02h89.86c0.04 0 0.06 0.02 0.1 0.02 0.02 0 0.04-0.02 0.08-0.02h89.88c0.02 0 0.06 0.02 0.08 0.02 0.04 0 0.06-0.02 0.1-0.02h79.9c0.02 0 0.06 0.02 0.08 0.02 0.04 0 0.06-0.02 0.1-0.02h88.02v393.4z" fill="#23130D" /><path d="M784.32 62.44c0 9.42-7.66 17.08-17.08 17.08s-17.08-7.66-17.08-17.08 7.66-17.08 17.08-17.08 17.08 7.66 17.08 17.08zM660.18 112.62c0 9.42-7.66 17.1-17.08 17.1s-17.08-7.68-17.08-17.1 7.66-17.08 17.08-17.08 17.08 7.66 17.08 17.08zM531.64 195.64c0 9.42-7.68 17.1-17.1 17.1-9.42 0-17.08-7.68-17.08-17.1s7.66-17.08 17.08-17.08c9.42 0 17.1 7.66 17.1 17.08zM403.08 112.62c0 9.42-7.66 17.1-17.08 17.1s-17.1-7.68-17.1-17.1 7.68-17.08 17.1-17.08 17.08 7.66 17.08 17.08zM278.94 62.44c0 1.9-0.3 3.72-0.88 5.42-0.56 1.7-1.4 3.28-2.46 4.7-0.62 0.86-1.32 1.64-2.1 2.38a17.03 17.03 0 0 1-3.8 2.68c-1.28 0.66-2.68 1.16-4.12 1.48-1.2 0.28-2.44 0.42-3.72 0.42-9.42 0-17.08-7.66-17.08-17.08 0-1.28 0.14-2.52 0.42-3.72 0.32-1.46 0.82-2.84 1.48-4.12a17.03 17.03 0 0 1 2.68-3.8c0.74-0.78 1.52-1.48 2.38-2.1 1.42-1.06 3-1.88 4.7-2.46 1.7-0.56 3.52-0.88 5.42-0.88 9.42 0 17.08 7.66 17.08 17.08zM278.94 961.56c0 9.42-7.66 17.08-17.08 17.08s-17.08-7.66-17.08-17.08c0-9.42 7.66-17.08 17.08-17.08 9.42 0 17.08 7.66 17.08 17.08zM403.08 911.38c0 9.42-7.66 17.08-17.08 17.08s-17.1-7.66-17.1-17.08 7.68-17.1 17.1-17.1 17.08 7.68 17.08 17.1zM531.64 828.36c0 9.42-7.68 17.08-17.1 17.08-9.42 0-17.08-7.66-17.08-17.08s7.66-17.1 17.08-17.1c9.42 0 17.1 7.68 17.1 17.1zM660.18 911.38c0 9.42-7.66 17.08-17.08 17.08s-17.08-7.66-17.08-17.08 7.66-17.1 17.08-17.1 17.08 7.68 17.08 17.1zM784.32 961.56c0 9.42-7.66 17.08-17.08 17.08s-17.08-7.66-17.08-17.08c0-9.42 7.66-17.08 17.08-17.08s17.08 7.66 17.08 17.08z" fill="#F9C139" /><path d="M436.92 371.82a129.414 129.414 0 0 1-15.72 47.74l182.8 182.8A131.22 131.22 0 0 1 633.1 568l-196.18-196.18z m0 0a129.414 129.414 0 0 1-15.72 47.74l182.8 182.8A131.22 131.22 0 0 1 633.1 568l-196.18-196.18z m247.84-56.52c-0.04 0-0.06 0.02-0.1 0.02-0.02 0-0.06-0.02-0.08-0.02h-79.9c-0.04 0-0.06 0.02-0.1 0.02-0.02 0-0.06-0.02-0.08-0.02h-89.88c-0.04 0-0.06 0.02-0.08 0.02-0.04 0-0.06-0.02-0.1-0.02h-89.86c-0.02 0-0.06 0.02-0.08 0.02-0.04 0-0.06-0.02-0.1-0.02h-79.9c-0.02 0-0.06 0.02-0.08 0.02-0.04 0-0.06-0.02-0.08-0.02h-93.12v393.4h93.1c0.04 0 0.08-0.02 0.12-0.02 0.04 0 0.08 0.02 0.12 0.02h79.84c0.04 0 0.08-0.02 0.12-0.02s0.08 0.02 0.12 0.02h89.8c0.04 0 0.08-0.02 0.12-0.02 0.04 0 0.06 0.02 0.1 0.02h89.8c0.04 0 0.08-0.02 0.12-0.02 0.04 0 0.08 0.02 0.12 0.02h79.84c0.04 0 0.08-0.02 0.12-0.02 0.04 0 0.08 0.02 0.12 0.02h88v-393.4h-88.02z m-88.7 30.28c5.52 0 10 4.46 10 10 0 61.12 49.72 110.86 110.86 110.86 5.52 0 10 4.48 10 10s-4.48 10-10 10c-72.16 0-130.86-58.7-130.86-130.86 0-5.54 4.46-10 10-10z m-168.12 332.84c-5.52 0-10-4.46-10-10 0-61.14-49.72-110.88-110.86-110.88-5.52 0-10-4.48-10-10s4.48-10 10-10c72.16 0 130.86 58.72 130.86 130.88 0 5.52-4.46 10-10 10z m-111.16-192.34c-3.2 0.24-6.44 0.36-9.7 0.36-5.52 0-10-4.48-10-10 0-2.78 1.14-5.3 2.96-7.1 1.82-1.8 4.3-2.9 7.04-2.9 19.9 0 38.62-5.28 54.78-14.52 6.42-3.66 12.46-7.96 18-12.8a111.306 111.306 0 0 0 26.56-34.34c7.38-14.82 11.52-31.54 11.52-49.2 0-0.84 0.1-1.64 0.32-2.42 1.06-4.36 5-7.58 9.68-7.58 5.54 0 10 4.48 10 10 0 5.5-0.34 10.92-1.02 16.24a129.414 129.414 0 0 1-15.72 47.74 131.916 131.916 0 0 1-27.16 33.74 132.468 132.468 0 0 1-17.6 13.2 129.766 129.766 0 0 1-59.66 19.58z m400.14 71.46c-26.34 0-50.58 9.24-69.62 24.66a111.21 111.21 0 0 0-28.6 34.86c-7.64 14.5-12.12 30.92-12.6 48.3-0.02 1.02-0.04 2.04-0.04 3.06 0 5.52-4.48 10-10 10-2.78 0-5.26-1.12-7.08-2.92-1.8-1.82-2.92-4.3-2.92-7.08 0-7.26 0.6-14.4 1.76-21.34a129.184 129.184 0 0 1 16.18-44.72A131.22 131.22 0 0 1 633.1 568c19.72-16.52 44.38-27.32 71.4-29.86 4.08-0.4 8.24-0.6 12.42-0.6a10.004 10.004 0 0 1 5.4 18.42c-1.56 1-3.42 1.58-5.4 1.58z m-280-185.72a129.414 129.414 0 0 1-15.72 47.74l182.8 182.8A131.22 131.22 0 0 1 633.1 568l-196.18-196.18z" fill="#E1E1E5" /><path d="M762.78 325.3v373.4h-76.82l-0.082-0.02h-1.22c-0.21 0-0.42 0.006-0.63 0.02H605.88l-0.082-0.02h-1.22c-0.21 0-0.42 0.006-0.63 0.02h-87.72l-0.06-0.02h-1.61c-0.21 0-0.42 0.006-0.63 0.02H425.82l-0.082-0.02h-1.22c-0.21 0-0.42 0.006-0.63 0.02H345.74l-0.082-0.02h-1.218c-0.21 0-0.42 0.006-0.63 0.02H261.22v-373.4h82.564c0.212 0.014 0.424 0.02 0.636 0.02l1.648-0.01 0.03-0.01h77.77c0.21 0.014 0.422 0.02 0.632 0.02l1.648-0.01 0.03-0.01h87.73c0.21 0.014 0.422 0.02 0.632 0.02l2-0.008 0.03-0.012h86.342l0.06 0.02h1.608c0.212 0 0.422-0.006 0.632-0.02h77.778l0.06 0.02h1.608c0.212 0 0.422-0.006 0.632-0.02h77.49m-45.86 171.14c11.028 0 20-8.972 20-20s-8.972-20-20-20c-55.614 0-100.86-45.246-100.86-100.86 0-11.028-8.972-20-20-20s-20 8.972-20 20c0 77.67 63.19 140.86 140.86 140.86m-409.84 0c77.67 0 140.86-63.19 140.86-140.86 0-11.028-8.972-20-20-20s-20 8.972-20 20c0 55.614-45.246 100.86-100.86 100.86-11.028 0-20 8.972-20 20s8.972 20 20 20m288.98 191.98c11.028 0 20-8.972 20-20 0-55.626 45.246-100.88 100.86-100.88 11.028 0 20-8.972 20-20s-8.972-20-20-20c-77.67 0-140.86 63.198-140.86 140.88a19.956 19.956 0 0 0 5.81 14.112l0.038 0.04 0.04 0.038a19.956 19.956 0 0 0 14.112 5.81m-168.12 0c11.028 0 20-8.972 20-20 0-77.682-63.19-140.88-140.86-140.88-11.028 0-20 8.972-20 20s8.972 20 20 20c55.614 0 100.86 45.254 100.86 100.88 0 11.028 8.972 20 20 20m344.84-373.12h-88.02c-0.04 0-0.06 0.02-0.1 0.02-0.02 0-0.06-0.02-0.08-0.02h-79.9c-0.04 0-0.06 0.02-0.1 0.02-0.02 0-0.06-0.02-0.08-0.02h-89.88c-0.04 0-0.06 0.02-0.08 0.02-0.04 0-0.06-0.02-0.1-0.02h-89.86c-0.02 0-0.06 0.02-0.08 0.02-0.04 0-0.06-0.02-0.1-0.02h-79.9c-0.02 0-0.06 0.02-0.08 0.02-0.04 0-0.06-0.02-0.08-0.02h-93.12v393.4h93.1c0.04 0 0.08-0.02 0.12-0.02s0.08 0.02 0.12 0.02h79.84c0.04 0 0.08-0.02 0.12-0.02s0.08 0.02 0.12 0.02h89.8c0.04 0 0.08-0.02 0.12-0.02 0.04 0 0.06 0.02 0.1 0.02h89.8c0.04 0 0.08-0.02 0.12-0.02 0.04 0 0.08 0.02 0.12 0.02h79.84c0.04 0 0.08-0.02 0.12-0.02 0.04 0 0.08 0.02 0.12 0.02h88v-393.4z m-55.86 171.14c-72.16 0-130.86-58.7-130.86-130.86 0-5.54 4.46-10 10-10 5.52 0 10 4.46 10 10 0 61.12 49.72 110.86 110.86 110.86 5.52 0 10 4.48 10 10s-4.48 10-10 10z m-409.84 0c-5.52 0-10-4.48-10-10s4.48-10 10-10c61.14 0 110.86-49.74 110.86-110.86 0-5.52 4.48-10 10-10 5.54 0 10 4.48 10 10 0 72.16-58.7 130.86-130.86 130.86z m288.98 191.98c-2.78 0-5.26-1.12-7.08-2.92-1.8-1.82-2.92-4.3-2.92-7.08 0-72.16 58.7-130.88 130.86-130.88 5.52 0 10 4.48 10 10s-4.48 10-10 10c-61.14 0-110.86 49.74-110.86 110.88 0 5.52-4.48 10-10 10z m-168.12 0c-5.52 0-10-4.46-10-10 0-61.14-49.72-110.88-110.86-110.88-5.52 0-10-4.48-10-10s4.48-10 10-10c72.16 0 130.86 58.72 130.86 130.88 0 5.52-4.46 10-10 10z" opacity=".2" /><path d="M437.94 355.58c0 72.16-58.7 130.86-130.86 130.86-5.52 0-10-4.48-10-10s4.48-10 10-10c61.14 0 110.86-49.74 110.86-110.86 0-5.52 4.48-10 10-10 5.54 0 10 4.48 10 10zM437.94 668.42c0 5.52-4.46 10-10 10-5.52 0-10-4.46-10-10 0-61.14-49.72-110.88-110.86-110.88-5.52 0-10-4.48-10-10s4.48-10 10-10c72.16 0 130.86 58.72 130.86 130.88zM726.92 476.44c0 5.52-4.48 10-10 10-72.16 0-130.86-58.7-130.86-130.86 0-5.54 4.46-10 10-10 5.52 0 10 4.46 10 10 0 61.12 49.72 110.86 110.86 110.86 5.52 0 10 4.48 10 10zM726.92 547.54c0 5.52-4.48 10-10 10-61.14 0-110.86 49.74-110.86 110.88 0 5.52-4.48 10-10 10-2.78 0-5.26-1.12-7.08-2.92-1.8-1.82-2.92-4.3-2.92-7.08 0-72.16 58.7-130.88 130.86-130.88 5.52 0 10 4.48 10 10z" fill="#23130D" /><path d="M269.7 77.62c-1.28 0.66-2.68 1.16-4.12 1.48L245.2 58.72c0.32-1.46 0.82-2.84 1.48-4.12l23.02 23.02zM273.5 74.94c-0.74 0.7-1.56 1.32-2.42 1.88l-23.6-23.6c0.56-0.86 1.18-1.68 1.88-2.42l24.14 24.14zM278.06 67.86c-0.56 1.7-1.4 3.28-2.46 4.7l-23.86-23.86c1.42-1.06 3-1.88 4.7-2.46l21.62 21.62z" fill="#FFFFFF" opacity=".4" /><path d="M394.06 127.58c-1.28 0.66-2.68 1.16-4.12 1.48l-20.38-20.38c0.32-1.46 0.82-2.84 1.48-4.12l23.02 23.02zM397.86 124.9c-0.74 0.7-1.56 1.32-2.42 1.88l-23.6-23.6c0.56-0.86 1.18-1.68 1.88-2.42l24.14 24.14zM402.42 117.82c-0.56 1.7-1.4 3.28-2.46 4.7l-23.86-23.86c1.42-1.06 3-1.88 4.7-2.46l21.62 21.62z" fill="#FFFFFF" opacity=".4" /><path d="M522.62 210.6c-1.28 0.66-2.68 1.16-4.12 1.48l-20.38-20.38c0.32-1.46 0.82-2.84 1.48-4.12l23.02 23.02zM526.42 207.92c-0.74 0.7-1.56 1.32-2.42 1.88l-23.6-23.6c0.56-0.86 1.18-1.68 1.88-2.42l24.14 24.14zM530.98 200.84c-0.56 1.7-1.4 3.28-2.46 4.7l-23.86-23.86c1.42-1.06 3-1.88 4.7-2.46l21.62 21.62z" fill="#FFFFFF" opacity=".4" /><path d="M651.17 127.58c-1.28 0.66-2.68 1.16-4.12 1.48l-20.38-20.38c0.32-1.46 0.82-2.84 1.48-4.12l23.02 23.02zM654.97 124.9c-0.74 0.7-1.56 1.32-2.42 1.88l-23.6-23.6c0.56-0.86 1.18-1.68 1.88-2.42l24.14 24.14zM659.53 117.82c-0.56 1.7-1.4 3.28-2.46 4.7l-23.86-23.86c1.42-1.06 3-1.88 4.7-2.46l21.62 21.62z" fill="#FFFFFF" opacity=".4" /><path d="M775.31 77.39c-1.28 0.66-2.68 1.16-4.12 1.48l-20.38-20.38c0.32-1.46 0.82-2.84 1.48-4.12l23.02 23.02zM779.11 74.71c-0.74 0.7-1.56 1.32-2.42 1.88l-23.6-23.6c0.56-0.86 1.18-1.68 1.88-2.42l24.14 24.14zM783.67 67.63c-0.56 1.7-1.4 3.28-2.46 4.7l-23.86-23.86c1.42-1.06 3-1.88 4.7-2.46l21.62 21.62z" fill="#FFFFFF" opacity=".4" /><path d="M775.31 976.51c-1.28 0.66-2.68 1.16-4.12 1.48l-20.38-20.38c0.32-1.46 0.82-2.84 1.48-4.12l23.02 23.02zM779.11 973.83c-0.74 0.7-1.56 1.32-2.42 1.88l-23.6-23.6c0.56-0.86 1.18-1.68 1.88-2.42l24.14 24.14zM783.67 966.75c-0.56 1.7-1.4 3.28-2.46 4.7l-23.86-23.86c1.42-1.06 3-1.88 4.7-2.46l21.62 21.62z" fill="#FFFFFF" opacity=".4" /><path d="M651.17 926.32c-1.28 0.66-2.68 1.16-4.12 1.48l-20.38-20.38c0.32-1.46 0.82-2.84 1.48-4.12l23.02 23.02zM654.97 923.64c-0.74 0.7-1.56 1.32-2.42 1.88l-23.6-23.6c0.56-0.86 1.18-1.68 1.88-2.42l24.14 24.14zM659.53 916.56c-0.56 1.7-1.4 3.28-2.46 4.7l-23.86-23.86c1.42-1.06 3-1.88 4.7-2.46l21.62 21.62z" fill="#FFFFFF" opacity=".4" /><path d="M522.62 843.3c-1.28 0.66-2.68 1.16-4.12 1.48l-20.38-20.38c0.32-1.46 0.82-2.84 1.48-4.12l23.02 23.02zM526.42 840.62c-0.74 0.7-1.56 1.32-2.42 1.88l-23.6-23.6c0.56-0.86 1.18-1.68 1.88-2.42l24.14 24.14zM530.98 833.54c-0.56 1.7-1.4 3.28-2.46 4.7l-23.86-23.86c1.42-1.06 3-1.88 4.7-2.46l21.62 21.62z" fill="#FFFFFF" opacity=".4" /><path d="M394.06 926.32c-1.28 0.66-2.68 1.16-4.12 1.48l-20.38-20.38c0.32-1.46 0.82-2.84 1.48-4.12l23.02 23.02zM397.86 923.64c-0.74 0.7-1.56 1.32-2.42 1.88l-23.6-23.6c0.56-0.86 1.18-1.68 1.88-2.42l24.14 24.14zM402.42 916.56c-0.56 1.7-1.4 3.28-2.46 4.7l-23.86-23.86c1.42-1.06 3-1.88 4.7-2.46l21.62 21.62z" fill="#FFFFFF" opacity=".4" /><path d="M269.93 976.51c-1.28 0.66-2.68 1.16-4.12 1.48l-20.38-20.38c0.32-1.46 0.82-2.84 1.48-4.12l23.02 23.02zM273.73 973.83c-0.74 0.7-1.56 1.32-2.42 1.88l-23.6-23.6c0.56-0.86 1.18-1.68 1.88-2.42l24.14 24.14zM278.29 966.75c-0.56 1.7-1.4 3.28-2.46 4.7l-23.86-23.86c1.42-1.06 3-1.88 4.7-2.46l21.62 21.62z" fill="#FFFFFF" opacity=".4" /><path d="M361.86 451.92a110.074 110.074 0 0 1-54.78 14.52c-2.74 0-5.22 1.1-7.04 2.9l-48.82-48.82v-79.24l110.64 110.64zM618.64 708.7h-13.94c-0.04 0-0.08-0.02-0.12-0.02-0.04 0-0.08 0.02-0.12 0.02H539.4L316.78 486.08c21.8-1.6 42.12-8.56 59.66-19.58l242.2 242.2zM406.42 404.78c-6.54 13.14-15.6 24.8-26.56 34.34l-123.82-123.82h60.9l89.48 89.48zM604 602.36a129.184 129.184 0 0 0-16.18 44.72l-193.78-193.78a131.916 131.916 0 0 0 27.16-33.74l182.8 182.8zM710.34 708.7h-25.56c-0.04 0-0.08-0.02-0.12-0.02-0.04 0-0.08 0.02-0.12 0.02h-35.1l-43.34-43.34c0.48-17.38 4.96-33.8 12.6-48.3l91.64 91.64zM704.5 538.14c-27.02 2.54-51.68 13.34-71.4 29.86l-196.18-196.18c0.68-5.32 1.02-10.74 1.02-16.24 0-5.52-4.46-10-10-10-4.68 0-8.62 3.22-9.68 7.58l-37.86-37.86h44c0.04 0 0.06 0.02 0.1 0.02 0.02 0 0.06-0.02 0.08-0.02h57.08l222.84 222.84zM772.78 606.42v101.26l-125.48-125.48c19.04-15.42 43.28-24.66 69.62-24.66 1.98 0 3.84-0.58 5.4-1.58l50.46 50.46z" fill="#FFFFFF" opacity=".4" /></svg>